<svg xmlns="http://www.w3.org/2000/svg" viewBox="0 0 34.02 34.02"><defs><style>.cls-1{fill:#617ab9;}.cls-2{fill:#fff;}</style></defs><title>Asset 1</title><g id="Layer_2" data-name="Layer 2"><g id="Capa_1" data-name="Capa 1"><path class="cls-1" d="M17,34A17,17,0,1,0,0,17,17,17,0,0,0,17,34"/><path class="cls-2" d="M12.9,14.13h1.76V12.42a4.57,4.57,0,0,1,.57-2.64A3.14,3.14,0,0,1,18,8.5a10.89,10.89,0,0,1,3.15.32l-.44,2.6a5.94,5.94,0,0,0-1.41-.21c-.69,0-1.3.25-1.3.93v2h2.8l-.19,2.54H18v8.84h-3.3V16.67H12.9Z"/></g></g></svg>