<svg xmlns="http://www.w3.org/2000/svg" viewBox="0 0 34.02 34.02"><defs><style>.cls-1{fill:#cd5756;}.cls-2{fill:#fff;}</style></defs><title>Asset 1</title><g id="Layer_2" data-name="Layer 2"><g id="Capa_1" data-name="Capa 1"><path class="cls-1" d="M17,34A17,17,0,1,0,0,17,17,17,0,0,0,17,34"/><path class="cls-2" d="M17,8.46A8.5,8.5,0,0,0,13.6,24.75a7.27,7.27,0,0,1,.14-1.95c.17-.69,1.1-4.63,1.1-4.63a3.33,3.33,0,0,1-.27-1.35c0-1.26.73-2.2,1.64-2.2a1.14,1.14,0,0,1,1.14,1.28,17.75,17.75,0,0,1-.75,3,1.31,1.31,0,0,0,1.34,1.64c1.62,0,2.7-2.07,2.7-4.52,0-1.86-1.26-3.26-3.54-3.26a4,4,0,0,0-4.18,4.07,2.42,2.42,0,0,0,.56,1.67.44.44,0,0,1,.12.48l-.18.68a.29.29,0,0,1-.42.21,3.27,3.27,0,0,1-1.74-3.25c0-2.41,2-5.31,6.07-5.31a5.09,5.09,0,0,1,5.39,4.87c0,3.34-1.86,5.83-4.59,5.83A2.46,2.46,0,0,1,16.05,21s-.49,2-.6,2.34a7.26,7.26,0,0,1-.85,1.82,8.67,8.67,0,0,0,2.41.35,8.51,8.51,0,0,0,0-17"/></g></g></svg>