<?xml version="1.0" standalone="no"?>
<!DOCTYPE svg PUBLIC "-//W3C//DTD SVG 20010904//EN"
 "http://www.w3.org/TR/2001/REC-SVG-20010904/DTD/svg10.dtd">
<svg version="1.0" xmlns="http://www.w3.org/2000/svg"
 width="94.000000pt" height="94.000000pt" viewBox="0 0 94.000000 94.000000"
 preserveAspectRatio="xMidYMid meet">
<metadata>
Created by potrace 1.14, written by Peter Selinger 2001-2017
</metadata>
<g transform="translate(0.000000,94.000000) scale(0.100000,-0.100000)"
fill="#000000" stroke="none">
<path d="M399 861 c-40 -41 -41 -98 -1 -142 62 -70 172 -24 172 72 0 90 -107
134 -171 70z m118 -23 c20 -16 25 -59 8 -84 -20 -32 -59 -40 -89 -20 -31 20
-39 46 -26 80 15 42 69 54 107 24z"/>
<path d="M80 812 c0 -14 309 -316 317 -309 7 8 -295 317 -309 317 -5 0 -8 -3
-8 -8z"/>
<path d="M692 667 c-83 -84 -152 -159 -152 -167 0 -8 72 57 160 145 88 88 160
163 160 167 0 20 -25 -2 -168 -145z"/>
<path d="M42 437 c-23 -50 -42 -95 -42 -98 0 -4 7 -10 15 -13 10 -4 20 3 27
19 9 20 18 25 50 25 31 0 41 -5 50 -25 12 -27 16 -29 36 -17 10 7 2 31 -34
105 -26 53 -49 97 -53 97 -3 0 -25 -42 -49 -93z m68 -19 c0 -5 -9 -8 -20 -8
-18 0 -19 3 -9 21 9 17 13 19 20 8 5 -8 9 -17 9 -21z"/>
<path d="M770 419 l0 -101 62 4 c51 4 65 9 85 32 34 40 32 99 -6 137 -26 25
-37 29 -85 29 l-56 0 0 -101z m115 47 c11 -8 18 -26 18 -46 0 -38 -23 -60 -65
-60 -28 0 -28 1 -28 60 0 59 0 60 28 60 16 0 37 -6 47 -14z"/>
<path d="M450 477 c0 -1 -4 -17 -9 -35 -7 -24 -6 -35 5 -47 23 -22 54 -19 54
5 0 23 -10 26 -28 8 -9 -9 -12 -9 -12 1 0 8 7 19 17 26 19 14 11 45 -12 45 -8
0 -15 -1 -15 -3z"/>
<path d="M530 365 c0 -13 318 -331 324 -324 3 3 -69 79 -159 169 -91 91 -165
160 -165 155z"/>
<path d="M235 200 c-88 -88 -155 -160 -150 -160 6 0 82 72 170 160 88 88 155
160 150 160 -6 0 -82 -72 -170 -160z"/>
<path d="M390 115 c0 -20 5 -22 43 -21 23 1 48 5 55 9 6 5 12 4 12 0 0 -5 11
-10 25 -11 25 -2 32 13 17 33 -4 6 -40 10 -79 11 -69 1 -73 0 -73 -21z"/>
</g>
</svg>
