<svg xmlns="http://www.w3.org/2000/svg" viewBox="0 0 34.02 34.02"><defs><style>.cls-1{fill:#95cbef;}.cls-2{fill:#fff;}</style></defs><title>Asset 3</title><g id="Layer_2" data-name="Layer 2"><g id="Capa_1" data-name="Capa 1"><path class="cls-1" d="M17,34A17,17,0,1,0,0,17,17,17,0,0,0,17,34"/><path class="cls-2" d="M25.54,12.55a6.8,6.8,0,0,1-2,.55,3.44,3.44,0,0,0,1.54-1.93,7.1,7.1,0,0,1-2.22.85,3.5,3.5,0,0,0-6.05,2.39,3.42,3.42,0,0,0,.09.79,9.89,9.89,0,0,1-7.2-3.65,3.51,3.51,0,0,0,1.08,4.67,3.52,3.52,0,0,1-1.58-.44v.05A3.49,3.49,0,0,0,12,19.25a3.1,3.1,0,0,1-.92.13,3,3,0,0,1-.66-.07,3.51,3.51,0,0,0,3.27,2.43,7,7,0,0,1-4.34,1.5,7.89,7.89,0,0,1-.84,0,9.95,9.95,0,0,0,15.31-8.38c0-.15,0-.3,0-.45a7.13,7.13,0,0,0,1.74-1.81"/></g></g></svg>